<mxfile host="Electron" agent="Mozilla/5.0 (Windows NT 10.0; Win64; x64) AppleWebKit/537.36 (KHTML, like Gecko) draw.io/26.2.2 Chrome/134.0.6998.178 Electron/35.1.2 Safari/537.36" version="26.2.2">
  <diagram name="Use Case Diagram" id="TOEIC_USE_CASE">
    <mxGraphModel dx="40406" dy="23363" grid="0" gridSize="1" guides="1" tooltips="1" connect="1" arrows="1" fold="1" page="0" pageScale="1" pageWidth="827" pageHeight="1169" background="#ffffff" math="0" shadow="0">
      <root>
        <mxCell id="0" />
        <mxCell id="1" parent="0" />
        <mxCell id="e1" style="endArrow=none;" parent="1" edge="1" />
        <mxCell id="e2" style="endArrow=none;" parent="1" edge="1" />
        <mxCell id="e3" style="endArrow=none;" parent="1" edge="1" />
        <mxCell id="e4" style="endArrow=none;" parent="1" edge="1" />
        <mxCell id="e5" style="endArrow=none;" parent="1" edge="1" />
        <mxCell id="e6" style="endArrow=none;" parent="1" edge="1" />
        <mxCell id="e7" style="endArrow=none;" parent="1" edge="1" />
        <mxCell id="e8" style="endArrow=none;" parent="1" edge="1" />
        <mxCell id="e9" style="endArrow=none;" parent="1" edge="1" />
        <mxCell id="e10" style="endArrow=none;" parent="1" edge="1" />
        <mxCell id="e11" style="endArrow=none;" parent="1" edge="1" />
        <mxCell id="Es_Pppde6zORAHawPL5I-13" style="endArrow=none;" parent="1" edge="1" />
        <mxCell id="Es_Pppde6zORAHawPL5I-14" style="endArrow=none;" parent="1" edge="1" />
        <mxCell id="Es_Pppde6zORAHawPL5I-15" style="endArrow=none;" parent="1" edge="1" />
        <mxCell id="Es_Pppde6zORAHawPL5I-16" style="endArrow=none;" parent="1" edge="1" />
        <mxCell id="Es_Pppde6zORAHawPL5I-17" style="endArrow=none;" parent="1" edge="1" />
        <mxCell id="Es_Pppde6zORAHawPL5I-18" style="endArrow=none;" parent="1" edge="1" />
        <mxCell id="Es_Pppde6zORAHawPL5I-19" style="endArrow=none;" parent="1" edge="1" />
        <mxCell id="Es_Pppde6zORAHawPL5I-20" style="endArrow=none;" parent="1" edge="1" />
        <mxCell id="Es_Pppde6zORAHawPL5I-21" style="endArrow=none;" parent="1" edge="1" />
        <mxCell id="Es_Pppde6zORAHawPL5I-22" style="endArrow=none;" parent="1" edge="1" />
        <mxCell id="Es_Pppde6zORAHawPL5I-23" style="endArrow=none;" parent="1" edge="1" />
        <mxCell id="R_YrqIxJv86OX_bvhdCV-13" style="endArrow=none;" parent="1" edge="1" />
        <mxCell id="R_YrqIxJv86OX_bvhdCV-14" style="endArrow=none;" parent="1" edge="1" />
        <mxCell id="R_YrqIxJv86OX_bvhdCV-15" style="endArrow=none;" parent="1" edge="1" />
        <mxCell id="R_YrqIxJv86OX_bvhdCV-16" style="endArrow=none;" parent="1" edge="1" />
        <mxCell id="R_YrqIxJv86OX_bvhdCV-17" style="endArrow=none;" parent="1" edge="1" />
        <mxCell id="R_YrqIxJv86OX_bvhdCV-18" style="endArrow=none;" parent="1" edge="1" />
        <mxCell id="R_YrqIxJv86OX_bvhdCV-19" style="endArrow=none;" parent="1" edge="1" />
        <mxCell id="R_YrqIxJv86OX_bvhdCV-20" style="endArrow=none;" parent="1" edge="1" />
        <mxCell id="R_YrqIxJv86OX_bvhdCV-21" style="endArrow=none;" parent="1" edge="1" />
        <mxCell id="R_YrqIxJv86OX_bvhdCV-22" style="endArrow=none;" parent="1" edge="1" />
        <mxCell id="R_YrqIxJv86OX_bvhdCV-23" style="endArrow=none;" parent="1" edge="1" />
        <mxCell id="R_YrqIxJv86OX_bvhdCV-36" style="endArrow=none;" parent="1" edge="1" />
        <mxCell id="R_YrqIxJv86OX_bvhdCV-37" style="endArrow=none;" parent="1" edge="1" />
        <mxCell id="R_YrqIxJv86OX_bvhdCV-38" style="endArrow=none;" parent="1" edge="1" />
        <mxCell id="R_YrqIxJv86OX_bvhdCV-39" style="endArrow=none;" parent="1" edge="1" />
        <mxCell id="R_YrqIxJv86OX_bvhdCV-40" style="endArrow=none;" parent="1" edge="1" />
        <mxCell id="R_YrqIxJv86OX_bvhdCV-41" style="endArrow=none;" parent="1" edge="1" />
        <mxCell id="R_YrqIxJv86OX_bvhdCV-42" style="endArrow=none;" parent="1" edge="1" />
        <mxCell id="R_YrqIxJv86OX_bvhdCV-43" style="endArrow=none;" parent="1" edge="1" />
        <mxCell id="R_YrqIxJv86OX_bvhdCV-44" style="endArrow=none;" parent="1" edge="1" />
        <mxCell id="R_YrqIxJv86OX_bvhdCV-45" style="endArrow=none;" parent="1" edge="1" />
        <mxCell id="R_YrqIxJv86OX_bvhdCV-46" style="endArrow=none;" parent="1" edge="1" />
        <mxCell id="-FbzT85Cqp1C87Nglcvg-13" style="endArrow=none;" parent="1" edge="1" />
        <mxCell id="-FbzT85Cqp1C87Nglcvg-14" style="endArrow=none;" parent="1" edge="1" />
        <mxCell id="-FbzT85Cqp1C87Nglcvg-15" style="endArrow=none;" parent="1" edge="1" />
        <mxCell id="-FbzT85Cqp1C87Nglcvg-16" style="endArrow=none;" parent="1" edge="1" />
        <mxCell id="-FbzT85Cqp1C87Nglcvg-17" style="endArrow=none;" parent="1" edge="1" />
        <mxCell id="-FbzT85Cqp1C87Nglcvg-18" style="endArrow=none;" parent="1" edge="1" />
        <mxCell id="-FbzT85Cqp1C87Nglcvg-19" style="endArrow=none;" parent="1" edge="1" />
        <mxCell id="-FbzT85Cqp1C87Nglcvg-20" style="endArrow=none;" parent="1" edge="1" />
        <mxCell id="-FbzT85Cqp1C87Nglcvg-21" style="endArrow=none;" parent="1" edge="1" />
        <mxCell id="-FbzT85Cqp1C87Nglcvg-22" style="endArrow=none;" parent="1" edge="1" />
        <mxCell id="-FbzT85Cqp1C87Nglcvg-23" style="endArrow=none;" parent="1" edge="1" />
        <mxCell id="-FbzT85Cqp1C87Nglcvg-36" style="endArrow=none;" parent="1" edge="1" />
        <mxCell id="-FbzT85Cqp1C87Nglcvg-37" style="endArrow=none;" parent="1" edge="1" />
        <mxCell id="-FbzT85Cqp1C87Nglcvg-38" style="endArrow=none;" parent="1" edge="1" />
        <mxCell id="-FbzT85Cqp1C87Nglcvg-39" style="endArrow=none;" parent="1" edge="1" />
        <mxCell id="-FbzT85Cqp1C87Nglcvg-40" style="endArrow=none;" parent="1" edge="1" />
        <mxCell id="-FbzT85Cqp1C87Nglcvg-41" style="endArrow=none;" parent="1" edge="1" />
        <mxCell id="-FbzT85Cqp1C87Nglcvg-42" style="endArrow=none;" parent="1" edge="1" />
        <mxCell id="-FbzT85Cqp1C87Nglcvg-43" style="endArrow=none;" parent="1" edge="1" />
        <mxCell id="-FbzT85Cqp1C87Nglcvg-44" style="endArrow=none;" parent="1" edge="1" />
        <mxCell id="-FbzT85Cqp1C87Nglcvg-45" style="endArrow=none;" parent="1" edge="1" />
        <mxCell id="-FbzT85Cqp1C87Nglcvg-46" style="endArrow=none;" parent="1" edge="1" />
        <mxCell id="-FbzT85Cqp1C87Nglcvg-137" style="endArrow=none;" parent="1" edge="1" />
        <mxCell id="-FbzT85Cqp1C87Nglcvg-138" style="endArrow=none;" parent="1" edge="1" />
        <mxCell id="-FbzT85Cqp1C87Nglcvg-139" style="endArrow=none;" parent="1" edge="1" />
        <mxCell id="-FbzT85Cqp1C87Nglcvg-140" style="endArrow=none;" parent="1" edge="1" />
        <mxCell id="-FbzT85Cqp1C87Nglcvg-141" style="endArrow=none;" parent="1" edge="1" />
        <mxCell id="-FbzT85Cqp1C87Nglcvg-142" style="endArrow=none;" parent="1" edge="1" />
        <mxCell id="-FbzT85Cqp1C87Nglcvg-143" style="endArrow=none;" parent="1" edge="1" />
        <mxCell id="-FbzT85Cqp1C87Nglcvg-144" style="endArrow=none;" parent="1" edge="1" />
        <mxCell id="-FbzT85Cqp1C87Nglcvg-145" style="endArrow=none;" parent="1" edge="1" />
        <mxCell id="-FbzT85Cqp1C87Nglcvg-146" style="endArrow=none;" parent="1" edge="1" />
        <mxCell id="-FbzT85Cqp1C87Nglcvg-147" style="endArrow=none;" parent="1" edge="1" />
        <mxCell id="-FbzT85Cqp1C87Nglcvg-148" value="使用者" style="shape=umlActor;verticalLabelPosition=bottom;verticalAlign=top;" parent="1" vertex="1">
          <mxGeometry x="-10842" y="-5258" width="30" height="60" as="geometry" />
        </mxCell>
        <mxCell id="-FbzT85Cqp1C87Nglcvg-149" value="管理員" style="shape=umlActor;verticalLabelPosition=bottom;verticalAlign=top;" parent="1" vertex="1">
          <mxGeometry x="-9627" y="-5189" width="30" height="60" as="geometry" />
        </mxCell>
        <mxCell id="-FbzT85Cqp1C87Nglcvg-150" value="忘記密碼" style="ellipse;whiteSpace=wrap;html=1;" parent="1" vertex="1">
          <mxGeometry x="-10632" y="-5531" width="120" height="40" as="geometry" />
        </mxCell>
        <mxCell id="-FbzT85Cqp1C87Nglcvg-151" value="修改密碼" style="ellipse;whiteSpace=wrap;html=1;" parent="1" vertex="1">
          <mxGeometry x="-10632" y="-5457" width="120" height="40" as="geometry" />
        </mxCell>
        <mxCell id="-FbzT85Cqp1C87Nglcvg-152" value="閱讀測驗" style="ellipse;whiteSpace=wrap;html=1;" parent="1" vertex="1">
          <mxGeometry x="-10632" y="-5383" width="120" height="40" as="geometry" />
        </mxCell>
        <mxCell id="-FbzT85Cqp1C87Nglcvg-153" value="單字卡領取" style="ellipse;whiteSpace=wrap;html=1;" parent="1" vertex="1">
          <mxGeometry x="-10632" y="-5309" width="120" height="40" as="geometry" />
        </mxCell>
        <mxCell id="-FbzT85Cqp1C87Nglcvg-154" value="聽力測驗" style="ellipse;whiteSpace=wrap;html=1;" parent="1" vertex="1">
          <mxGeometry x="-10632" y="-5235" width="120" height="40" as="geometry" />
        </mxCell>
        <mxCell id="-FbzT85Cqp1C87Nglcvg-155" value="查看學習報告" style="ellipse;whiteSpace=wrap;html=1;" parent="1" vertex="1">
          <mxGeometry x="-10632" y="-5162" width="120" height="40" as="geometry" />
        </mxCell>
        <mxCell id="-FbzT85Cqp1C87Nglcvg-156" value="點數兌換" style="ellipse;whiteSpace=wrap;html=1;" parent="1" vertex="1">
          <mxGeometry x="-10632" y="-5088" width="120" height="40" as="geometry" />
        </mxCell>
        <mxCell id="-FbzT85Cqp1C87Nglcvg-157" value="單字關聯地圖" style="ellipse;whiteSpace=wrap;html=1;" parent="1" vertex="1">
          <mxGeometry x="-10632" y="-5014" width="120" height="40" as="geometry" />
        </mxCell>
        <mxCell id="-FbzT85Cqp1C87Nglcvg-158" value="管理使用者" style="ellipse;whiteSpace=wrap;html=1;" parent="1" vertex="1">
          <mxGeometry x="-9918" y="-5346" width="120" height="40" as="geometry" />
        </mxCell>
        <mxCell id="-FbzT85Cqp1C87Nglcvg-159" value="管理題庫" style="ellipse;whiteSpace=wrap;html=1;" parent="1" vertex="1">
          <mxGeometry x="-9918" y="-5241" width="120" height="40" as="geometry" />
        </mxCell>
        <mxCell id="-FbzT85Cqp1C87Nglcvg-160" style="endArrow=none;" parent="1" source="-FbzT85Cqp1C87Nglcvg-148" target="-FbzT85Cqp1C87Nglcvg-150" edge="1" />
        <mxCell id="-FbzT85Cqp1C87Nglcvg-161" style="endArrow=none;" parent="1" source="-FbzT85Cqp1C87Nglcvg-148" target="-FbzT85Cqp1C87Nglcvg-151" edge="1" />
        <mxCell id="-FbzT85Cqp1C87Nglcvg-162" style="endArrow=none;" parent="1" source="-FbzT85Cqp1C87Nglcvg-148" target="-FbzT85Cqp1C87Nglcvg-152" edge="1" />
        <mxCell id="-FbzT85Cqp1C87Nglcvg-163" style="endArrow=none;" parent="1" source="-FbzT85Cqp1C87Nglcvg-148" target="-FbzT85Cqp1C87Nglcvg-153" edge="1" />
        <mxCell id="-FbzT85Cqp1C87Nglcvg-164" style="endArrow=none;" parent="1" source="-FbzT85Cqp1C87Nglcvg-148" target="-FbzT85Cqp1C87Nglcvg-154" edge="1" />
        <mxCell id="-FbzT85Cqp1C87Nglcvg-165" style="endArrow=none;" parent="1" source="-FbzT85Cqp1C87Nglcvg-148" target="-FbzT85Cqp1C87Nglcvg-155" edge="1" />
        <mxCell id="-FbzT85Cqp1C87Nglcvg-166" style="endArrow=none;" parent="1" source="-FbzT85Cqp1C87Nglcvg-148" target="-FbzT85Cqp1C87Nglcvg-156" edge="1" />
        <mxCell id="-FbzT85Cqp1C87Nglcvg-167" style="endArrow=none;" parent="1" source="-FbzT85Cqp1C87Nglcvg-148" target="-FbzT85Cqp1C87Nglcvg-157" edge="1" />
        <mxCell id="-FbzT85Cqp1C87Nglcvg-168" style="endArrow=none;" parent="1" source="-FbzT85Cqp1C87Nglcvg-149" target="-FbzT85Cqp1C87Nglcvg-151" edge="1" />
        <mxCell id="-FbzT85Cqp1C87Nglcvg-169" style="endArrow=none;" parent="1" source="-FbzT85Cqp1C87Nglcvg-149" target="-FbzT85Cqp1C87Nglcvg-158" edge="1" />
        <mxCell id="-FbzT85Cqp1C87Nglcvg-170" style="endArrow=none;" parent="1" source="-FbzT85Cqp1C87Nglcvg-149" target="-FbzT85Cqp1C87Nglcvg-159" edge="1" />
        <mxCell id="-FbzT85Cqp1C87Nglcvg-171" value="" style="endArrow=none;html=1;endSize=12;startArrow=none;startSize=14;startFill=0;edgeStyle=orthogonalEdgeStyle;rounded=0;entryX=0.5;entryY=0;entryDx=0;entryDy=0;entryPerimeter=0;exitX=0;exitY=0.5;exitDx=0;exitDy=0;align=center;" parent="1" source="-FbzT85Cqp1C87Nglcvg-150" edge="1">
          <mxGeometry relative="1" as="geometry">
            <mxPoint x="-10642" y="-5388" as="sourcePoint" />
            <mxPoint x="-10827" y="-5258" as="targetPoint" />
          </mxGeometry>
        </mxCell>
        <mxCell id="-FbzT85Cqp1C87Nglcvg-172" value="0..n" style="edgeLabel;resizable=0;html=1;align=left;verticalAlign=top;labelBackgroundColor=none;" parent="-FbzT85Cqp1C87Nglcvg-171" connectable="0" vertex="1">
          <mxGeometry x="-1" relative="1" as="geometry">
            <mxPoint x="-20" y="-20" as="offset" />
          </mxGeometry>
        </mxCell>
        <mxCell id="-FbzT85Cqp1C87Nglcvg-173" value="1" style="edgeLabel;resizable=0;html=1;align=right;verticalAlign=top;labelBackgroundColor=none;" parent="-FbzT85Cqp1C87Nglcvg-171" connectable="0" vertex="1">
          <mxGeometry x="1" relative="1" as="geometry">
            <mxPoint x="-5" y="-20" as="offset" />
          </mxGeometry>
        </mxCell>
        <mxCell id="-FbzT85Cqp1C87Nglcvg-174" value="" style="endArrow=none;html=1;endSize=12;startArrow=none;startSize=14;startFill=0;rounded=0;exitX=0;exitY=0.5;exitDx=0;exitDy=0;align=center;entryX=0.75;entryY=0.1;entryDx=0;entryDy=0;entryPerimeter=0;edgeStyle=elbowEdgeStyle;" parent="1" source="-FbzT85Cqp1C87Nglcvg-151" target="-FbzT85Cqp1C87Nglcvg-148" edge="1">
          <mxGeometry relative="1" as="geometry">
            <mxPoint x="-10642" y="-5328" as="sourcePoint" />
            <mxPoint x="-10802" y="-5238" as="targetPoint" />
            <Array as="points">
              <mxPoint x="-10792" y="-5378" />
            </Array>
          </mxGeometry>
        </mxCell>
        <mxCell id="-FbzT85Cqp1C87Nglcvg-175" value="0..n" style="edgeLabel;resizable=0;html=1;align=left;verticalAlign=top;labelBackgroundColor=none;" parent="-FbzT85Cqp1C87Nglcvg-174" connectable="0" vertex="1">
          <mxGeometry x="-1" relative="1" as="geometry">
            <mxPoint x="-20" y="-20" as="offset" />
          </mxGeometry>
        </mxCell>
        <mxCell id="-FbzT85Cqp1C87Nglcvg-176" value="1" style="edgeLabel;resizable=0;html=1;align=right;verticalAlign=top;labelBackgroundColor=none;" parent="-FbzT85Cqp1C87Nglcvg-174" connectable="0" vertex="1">
          <mxGeometry x="1" relative="1" as="geometry">
            <mxPoint x="8" y="-20" as="offset" />
          </mxGeometry>
        </mxCell>
        <mxCell id="-FbzT85Cqp1C87Nglcvg-177" value="" style="endArrow=none;html=1;endSize=12;startArrow=none;startSize=14;startFill=0;edgeStyle=elbowEdgeStyle;rounded=0;exitX=0;exitY=0.5;exitDx=0;exitDy=0;align=center;entryX=1;entryY=0.3333333333333333;entryDx=0;entryDy=0;entryPerimeter=0;" parent="1" source="-FbzT85Cqp1C87Nglcvg-152" target="-FbzT85Cqp1C87Nglcvg-148" edge="1">
          <mxGeometry relative="1" as="geometry">
            <mxPoint x="-10642" y="-5268" as="sourcePoint" />
            <mxPoint x="-10812" y="-5242" as="targetPoint" />
            <Array as="points">
              <mxPoint x="-10762" y="-5288" />
            </Array>
          </mxGeometry>
        </mxCell>
        <mxCell id="-FbzT85Cqp1C87Nglcvg-178" value="0..n" style="edgeLabel;resizable=0;html=1;align=left;verticalAlign=top;labelBackgroundColor=none;" parent="-FbzT85Cqp1C87Nglcvg-177" connectable="0" vertex="1">
          <mxGeometry x="-1" relative="1" as="geometry">
            <mxPoint x="-20" y="-20" as="offset" />
          </mxGeometry>
        </mxCell>
        <mxCell id="-FbzT85Cqp1C87Nglcvg-179" value="1" style="edgeLabel;resizable=0;html=1;align=right;verticalAlign=top;labelBackgroundColor=none;" parent="-FbzT85Cqp1C87Nglcvg-177" connectable="0" vertex="1">
          <mxGeometry x="1" relative="1" as="geometry">
            <mxPoint x="10" y="-20" as="offset" />
          </mxGeometry>
        </mxCell>
        <mxCell id="-FbzT85Cqp1C87Nglcvg-180" value="" style="endArrow=none;html=1;endSize=12;startArrow=none;startSize=14;startFill=0;rounded=0;exitX=0;exitY=0.5;exitDx=0;exitDy=0;align=center;edgeStyle=elbowEdgeStyle;entryX=0.614;entryY=0.64;entryDx=0;entryDy=0;entryPerimeter=0;" parent="1" source="-FbzT85Cqp1C87Nglcvg-153" target="-FbzT85Cqp1C87Nglcvg-148" edge="1">
          <mxGeometry relative="1" as="geometry">
            <mxPoint x="-10642" y="-5208" as="sourcePoint" />
            <mxPoint x="-10819" y="-5132" as="targetPoint" />
          </mxGeometry>
        </mxCell>
        <mxCell id="-FbzT85Cqp1C87Nglcvg-181" value="0..n" style="edgeLabel;resizable=0;html=1;align=left;verticalAlign=top;labelBackgroundColor=none;" parent="-FbzT85Cqp1C87Nglcvg-180" connectable="0" vertex="1">
          <mxGeometry x="-1" relative="1" as="geometry">
            <mxPoint x="-20" y="-20" as="offset" />
          </mxGeometry>
        </mxCell>
        <mxCell id="-FbzT85Cqp1C87Nglcvg-182" value="1" style="edgeLabel;resizable=0;html=1;align=right;verticalAlign=top;labelBackgroundColor=none;" parent="-FbzT85Cqp1C87Nglcvg-180" connectable="0" vertex="1">
          <mxGeometry x="1" relative="1" as="geometry">
            <mxPoint x="18" y="-20" as="offset" />
          </mxGeometry>
        </mxCell>
        <mxCell id="-FbzT85Cqp1C87Nglcvg-183" value="" style="endArrow=none;html=1;endSize=12;startArrow=none;startSize=14;startFill=0;rounded=0;exitX=0;exitY=0.5;exitDx=0;exitDy=0;align=center;edgeStyle=elbowEdgeStyle;entryX=1;entryY=1;entryDx=0;entryDy=0;entryPerimeter=0;" parent="1" source="-FbzT85Cqp1C87Nglcvg-154" target="-FbzT85Cqp1C87Nglcvg-148" edge="1">
          <mxGeometry relative="1" as="geometry">
            <mxPoint x="-10642" y="-5148" as="sourcePoint" />
            <mxPoint x="-10812" y="-5147" as="targetPoint" />
          </mxGeometry>
        </mxCell>
        <mxCell id="-FbzT85Cqp1C87Nglcvg-184" value="0..n" style="edgeLabel;resizable=0;html=1;align=left;verticalAlign=top;labelBackgroundColor=none;" parent="-FbzT85Cqp1C87Nglcvg-183" connectable="0" vertex="1">
          <mxGeometry x="-1" relative="1" as="geometry">
            <mxPoint x="-20" y="-20" as="offset" />
          </mxGeometry>
        </mxCell>
        <mxCell id="-FbzT85Cqp1C87Nglcvg-185" value="1" style="edgeLabel;resizable=0;html=1;align=right;verticalAlign=top;labelBackgroundColor=none;" parent="-FbzT85Cqp1C87Nglcvg-183" connectable="0" vertex="1">
          <mxGeometry x="1" relative="1" as="geometry">
            <mxPoint x="10" y="-20" as="offset" />
          </mxGeometry>
        </mxCell>
        <mxCell id="-FbzT85Cqp1C87Nglcvg-186" value="" style="endArrow=none;html=1;endSize=12;startArrow=none;startSize=14;startFill=0;rounded=0;align=center;edgeStyle=elbowEdgeStyle;exitX=0;exitY=0.5;exitDx=0;exitDy=0;" parent="1" source="-FbzT85Cqp1C87Nglcvg-155" edge="1">
          <mxGeometry relative="1" as="geometry">
            <mxPoint x="-10632" y="-5127.98" as="sourcePoint" />
            <mxPoint x="-10802" y="-5178" as="targetPoint" />
            <Array as="points">
              <mxPoint x="-10792" y="-5168" />
            </Array>
          </mxGeometry>
        </mxCell>
        <mxCell id="-FbzT85Cqp1C87Nglcvg-187" value="0..n" style="edgeLabel;resizable=0;html=1;align=left;verticalAlign=top;labelBackgroundColor=none;" parent="-FbzT85Cqp1C87Nglcvg-186" connectable="0" vertex="1">
          <mxGeometry x="-1" relative="1" as="geometry">
            <mxPoint x="-20" y="-20" as="offset" />
          </mxGeometry>
        </mxCell>
        <mxCell id="-FbzT85Cqp1C87Nglcvg-188" value="1" style="edgeLabel;resizable=0;html=1;align=right;verticalAlign=top;labelBackgroundColor=none;" parent="-FbzT85Cqp1C87Nglcvg-186" connectable="0" vertex="1">
          <mxGeometry x="1" relative="1" as="geometry">
            <mxPoint x="10" y="-20" as="offset" />
          </mxGeometry>
        </mxCell>
        <mxCell id="-FbzT85Cqp1C87Nglcvg-189" value="" style="endArrow=none;html=1;endSize=12;startArrow=none;startSize=14;startFill=0;rounded=0;align=center;edgeStyle=elbowEdgeStyle;exitX=0;exitY=0.5;exitDx=0;exitDy=0;" parent="1" source="-FbzT85Cqp1C87Nglcvg-156" edge="1">
          <mxGeometry relative="1" as="geometry">
            <mxPoint x="-10632" y="-5078" as="sourcePoint" />
            <mxPoint x="-10812" y="-5158" as="targetPoint" />
            <Array as="points">
              <mxPoint x="-10812" y="-5118" />
              <mxPoint x="-10802" y="-5118" />
            </Array>
          </mxGeometry>
        </mxCell>
        <mxCell id="-FbzT85Cqp1C87Nglcvg-190" value="0..n" style="edgeLabel;resizable=0;html=1;align=left;verticalAlign=top;labelBackgroundColor=none;" parent="-FbzT85Cqp1C87Nglcvg-189" connectable="0" vertex="1">
          <mxGeometry x="-1" relative="1" as="geometry">
            <mxPoint x="-20" y="-20" as="offset" />
          </mxGeometry>
        </mxCell>
        <mxCell id="-FbzT85Cqp1C87Nglcvg-191" value="1" style="edgeLabel;resizable=0;html=1;align=right;verticalAlign=top;labelBackgroundColor=none;" parent="-FbzT85Cqp1C87Nglcvg-189" connectable="0" vertex="1">
          <mxGeometry x="1" relative="1" as="geometry">
            <mxPoint x="8" y="-18" as="offset" />
          </mxGeometry>
        </mxCell>
        <mxCell id="-FbzT85Cqp1C87Nglcvg-192" value="" style="endArrow=none;html=1;endSize=12;startArrow=none;startSize=14;startFill=0;rounded=0;align=center;edgeStyle=elbowEdgeStyle;exitX=0;exitY=0.5;exitDx=0;exitDy=0;" parent="1" source="-FbzT85Cqp1C87Nglcvg-157" edge="1">
          <mxGeometry relative="1" as="geometry">
            <mxPoint x="-10632" y="-5018" as="sourcePoint" />
            <mxPoint x="-10823" y="-5156" as="targetPoint" />
            <Array as="points">
              <mxPoint x="-10823" y="-4995" />
            </Array>
          </mxGeometry>
        </mxCell>
        <mxCell id="-FbzT85Cqp1C87Nglcvg-193" value="0..n" style="edgeLabel;resizable=0;html=1;align=left;verticalAlign=top;labelBackgroundColor=none;" parent="-FbzT85Cqp1C87Nglcvg-192" connectable="0" vertex="1">
          <mxGeometry x="-1" relative="1" as="geometry">
            <mxPoint x="-20" y="-20" as="offset" />
          </mxGeometry>
        </mxCell>
        <mxCell id="-FbzT85Cqp1C87Nglcvg-194" value="1" style="edgeLabel;resizable=0;html=1;align=right;verticalAlign=top;labelBackgroundColor=none;" parent="-FbzT85Cqp1C87Nglcvg-192" connectable="0" vertex="1">
          <mxGeometry x="1" relative="1" as="geometry">
            <mxPoint x="6" y="-21" as="offset" />
          </mxGeometry>
        </mxCell>
        <mxCell id="-FbzT85Cqp1C87Nglcvg-195" value="訪客" style="shape=umlActor;verticalLabelPosition=bottom;verticalAlign=top;html=1;outlineConnect=0;" parent="1" vertex="1">
          <mxGeometry x="-10842" y="-4832" width="30" height="60" as="geometry" />
        </mxCell>
        <mxCell id="-FbzT85Cqp1C87Nglcvg-196" value="首頁片語查看" style="ellipse;whiteSpace=wrap;html=1;" parent="1" vertex="1">
          <mxGeometry x="-10632" y="-4866" width="120" height="40" as="geometry" />
        </mxCell>
        <mxCell id="-FbzT85Cqp1C87Nglcvg-197" value="" style="endArrow=none;html=1;endSize=12;startArrow=none;startSize=14;startFill=0;rounded=0;exitX=0;exitY=1;exitDx=0;exitDy=0;align=center;entryX=0.75;entryY=0.1;entryDx=0;entryDy=0;entryPerimeter=0;" parent="1" source="-FbzT85Cqp1C87Nglcvg-196" target="-FbzT85Cqp1C87Nglcvg-195" edge="1">
          <mxGeometry relative="1" as="geometry">
            <mxPoint x="-10632" y="-4958" as="sourcePoint" />
            <mxPoint x="-10824" y="-4920" as="targetPoint" />
          </mxGeometry>
        </mxCell>
        <mxCell id="-FbzT85Cqp1C87Nglcvg-198" value="0..n" style="edgeLabel;resizable=0;html=1;align=left;verticalAlign=top;labelBackgroundColor=none;" parent="-FbzT85Cqp1C87Nglcvg-197" connectable="0" vertex="1">
          <mxGeometry x="-1" relative="1" as="geometry">
            <mxPoint x="-28" y="-4" as="offset" />
          </mxGeometry>
        </mxCell>
        <mxCell id="-FbzT85Cqp1C87Nglcvg-199" value="1" style="edgeLabel;resizable=0;html=1;align=right;verticalAlign=top;labelBackgroundColor=none;" parent="-FbzT85Cqp1C87Nglcvg-197" connectable="0" vertex="1">
          <mxGeometry x="1" relative="1" as="geometry">
            <mxPoint x="18" y="-20" as="offset" />
          </mxGeometry>
        </mxCell>
        <mxCell id="-FbzT85Cqp1C87Nglcvg-200" value="註冊" style="ellipse;whiteSpace=wrap;html=1;" parent="1" vertex="1">
          <mxGeometry x="-10632" y="-4792" width="120" height="40" as="geometry" />
        </mxCell>
        <mxCell id="-FbzT85Cqp1C87Nglcvg-201" value="" style="endArrow=none;html=1;endSize=12;startArrow=none;startSize=14;startFill=0;rounded=0;align=center;edgeStyle=elbowEdgeStyle;exitX=0;exitY=0;exitDx=0;exitDy=0;" parent="1" source="-FbzT85Cqp1C87Nglcvg-196" edge="1">
          <mxGeometry relative="1" as="geometry">
            <mxPoint x="-10632" y="-4998" as="sourcePoint" />
            <mxPoint x="-10852" y="-5158" as="targetPoint" />
            <Array as="points">
              <mxPoint x="-10852" y="-4998" />
            </Array>
          </mxGeometry>
        </mxCell>
        <mxCell id="-FbzT85Cqp1C87Nglcvg-202" value="0..n" style="edgeLabel;resizable=0;html=1;align=left;verticalAlign=top;labelBackgroundColor=none;" parent="-FbzT85Cqp1C87Nglcvg-201" connectable="0" vertex="1">
          <mxGeometry x="-1" relative="1" as="geometry">
            <mxPoint x="-28" y="-20" as="offset" />
          </mxGeometry>
        </mxCell>
        <mxCell id="-FbzT85Cqp1C87Nglcvg-203" value="1" style="edgeLabel;resizable=0;html=1;align=right;verticalAlign=top;labelBackgroundColor=none;" parent="-FbzT85Cqp1C87Nglcvg-201" connectable="0" vertex="1">
          <mxGeometry x="1" relative="1" as="geometry">
            <mxPoint x="10" y="-20" as="offset" />
          </mxGeometry>
        </mxCell>
        <mxCell id="-FbzT85Cqp1C87Nglcvg-204" value="" style="endArrow=none;html=1;endSize=12;startArrow=none;startSize=14;startFill=0;rounded=0;exitX=0;exitY=0.5;exitDx=0;exitDy=0;align=center;" parent="1" source="-FbzT85Cqp1C87Nglcvg-200" target="-FbzT85Cqp1C87Nglcvg-195" edge="1">
          <mxGeometry relative="1" as="geometry">
            <mxPoint x="-10616" y="-4858" as="sourcePoint" />
            <mxPoint x="-10822" y="-4845" as="targetPoint" />
          </mxGeometry>
        </mxCell>
        <mxCell id="-FbzT85Cqp1C87Nglcvg-205" value="1" style="edgeLabel;resizable=0;html=1;align=left;verticalAlign=top;labelBackgroundColor=none;" parent="-FbzT85Cqp1C87Nglcvg-204" connectable="0" vertex="1">
          <mxGeometry x="-1" relative="1" as="geometry">
            <mxPoint x="-10" y="-4" as="offset" />
          </mxGeometry>
        </mxCell>
        <mxCell id="-FbzT85Cqp1C87Nglcvg-206" value="1" style="edgeLabel;resizable=0;html=1;align=right;verticalAlign=top;labelBackgroundColor=none;" parent="-FbzT85Cqp1C87Nglcvg-204" connectable="0" vertex="1">
          <mxGeometry x="1" relative="1" as="geometry">
            <mxPoint x="18" y="-20" as="offset" />
          </mxGeometry>
        </mxCell>
        <mxCell id="-FbzT85Cqp1C87Nglcvg-207" value="" style="endArrow=none;html=1;endSize=12;startArrow=none;startSize=14;startFill=0;edgeStyle=orthogonalEdgeStyle;rounded=0;align=center;entryX=0.25;entryY=0.1;entryDx=0;entryDy=0;entryPerimeter=0;" parent="1" source="-FbzT85Cqp1C87Nglcvg-158" target="-FbzT85Cqp1C87Nglcvg-149" edge="1">
          <mxGeometry relative="1" as="geometry">
            <mxPoint x="-9698" y="-5375" as="sourcePoint" />
            <mxPoint x="-9893" y="-5185" as="targetPoint" />
          </mxGeometry>
        </mxCell>
        <mxCell id="-FbzT85Cqp1C87Nglcvg-208" value="0..n" style="edgeLabel;resizable=0;html=1;align=left;verticalAlign=top;labelBackgroundColor=none;" parent="-FbzT85Cqp1C87Nglcvg-207" connectable="0" vertex="1">
          <mxGeometry x="-1" relative="1" as="geometry">
            <mxPoint y="-20" as="offset" />
          </mxGeometry>
        </mxCell>
        <mxCell id="-FbzT85Cqp1C87Nglcvg-209" value="1" style="edgeLabel;resizable=0;html=1;align=right;verticalAlign=top;labelBackgroundColor=none;" parent="-FbzT85Cqp1C87Nglcvg-207" connectable="0" vertex="1">
          <mxGeometry x="1" relative="1" as="geometry">
            <mxPoint x="12" y="-28" as="offset" />
          </mxGeometry>
        </mxCell>
        <mxCell id="-FbzT85Cqp1C87Nglcvg-210" value="" style="endArrow=none;html=1;endSize=12;startArrow=none;startSize=14;startFill=0;edgeStyle=orthogonalEdgeStyle;rounded=0;align=center;exitX=1;exitY=0.5;exitDx=0;exitDy=0;" parent="1" source="-FbzT85Cqp1C87Nglcvg-159" edge="1">
          <mxGeometry relative="1" as="geometry">
            <mxPoint x="-9818" y="-5148" as="sourcePoint" />
            <mxPoint x="-9630" y="-5181" as="targetPoint" />
            <Array as="points">
              <mxPoint x="-9630" y="-5221" />
            </Array>
          </mxGeometry>
        </mxCell>
        <mxCell id="-FbzT85Cqp1C87Nglcvg-211" value="0..n" style="edgeLabel;resizable=0;html=1;align=left;verticalAlign=top;labelBackgroundColor=none;" parent="-FbzT85Cqp1C87Nglcvg-210" connectable="0" vertex="1">
          <mxGeometry x="-1" relative="1" as="geometry">
            <mxPoint y="-20" as="offset" />
          </mxGeometry>
        </mxCell>
        <mxCell id="-FbzT85Cqp1C87Nglcvg-212" value="1" style="edgeLabel;resizable=0;html=1;align=right;verticalAlign=top;labelBackgroundColor=none;" parent="-FbzT85Cqp1C87Nglcvg-210" connectable="0" vertex="1">
          <mxGeometry x="1" relative="1" as="geometry">
            <mxPoint x="-5" y="-20" as="offset" />
          </mxGeometry>
        </mxCell>
        <mxCell id="-FbzT85Cqp1C87Nglcvg-213" value="登入" style="ellipse;whiteSpace=wrap;html=1;" parent="1" vertex="1">
          <mxGeometry x="-10157" y="-5286" width="120" height="40" as="geometry" />
        </mxCell>
        <mxCell id="-FbzT85Cqp1C87Nglcvg-214" value="驗證" style="ellipse;whiteSpace=wrap;html=1;" parent="1" vertex="1">
          <mxGeometry x="-10332" y="-5137" width="120" height="40" as="geometry" />
        </mxCell>
        <mxCell id="-FbzT85Cqp1C87Nglcvg-215" value="" style="endArrow=blockThin;dashed=1;html=1;rounded=0;exitX=1;exitY=0;exitDx=0;exitDy=0;entryX=0.36;entryY=0.021;entryDx=0;entryDy=0;edgeStyle=elbowEdgeStyle;fillColor=#008a00;strokeColor=#005700;strokeWidth=2;endFill=1;entryPerimeter=0;" parent="1" source="-FbzT85Cqp1C87Nglcvg-151" target="-FbzT85Cqp1C87Nglcvg-213" edge="1">
          <mxGeometry width="50" height="50" relative="1" as="geometry">
            <mxPoint x="-10512" y="-5382" as="sourcePoint" />
            <mxPoint x="-10123" y="-5215" as="targetPoint" />
            <Array as="points">
              <mxPoint x="-10113" y="-5358" />
            </Array>
          </mxGeometry>
        </mxCell>
        <mxCell id="-FbzT85Cqp1C87Nglcvg-216" value="&amp;lt;&amp;lt;Include&amp;gt;&amp;gt;" style="edgeLabel;html=1;align=center;verticalAlign=middle;resizable=0;points=[];labelBackgroundColor=none;" parent="-FbzT85Cqp1C87Nglcvg-215" vertex="1" connectable="0">
          <mxGeometry x="-0.629" y="6" relative="1" as="geometry">
            <mxPoint x="-66" y="-3" as="offset" />
          </mxGeometry>
        </mxCell>
        <mxCell id="-FbzT85Cqp1C87Nglcvg-217" value="" style="endArrow=blockThin;dashed=1;html=1;rounded=0;exitX=1;exitY=0;exitDx=0;exitDy=0;edgeStyle=elbowEdgeStyle;fillColor=#008a00;strokeColor=#005700;strokeWidth=2;endFill=1;" parent="1" source="-FbzT85Cqp1C87Nglcvg-152" target="-FbzT85Cqp1C87Nglcvg-213" edge="1">
          <mxGeometry width="50" height="50" relative="1" as="geometry">
            <mxPoint x="-10512" y="-5318" as="sourcePoint" />
            <mxPoint x="-10144" y="-5283" as="targetPoint" />
            <Array as="points">
              <mxPoint x="-10142" y="-5318" />
            </Array>
          </mxGeometry>
        </mxCell>
        <mxCell id="-FbzT85Cqp1C87Nglcvg-218" value="&amp;lt;&amp;lt;Include&amp;gt;&amp;gt;" style="edgeLabel;html=1;align=center;verticalAlign=middle;resizable=0;points=[];labelBackgroundColor=none;" parent="-FbzT85Cqp1C87Nglcvg-217" vertex="1" connectable="0">
          <mxGeometry x="-0.629" y="6" relative="1" as="geometry">
            <mxPoint x="-46" y="-3" as="offset" />
          </mxGeometry>
        </mxCell>
        <mxCell id="-FbzT85Cqp1C87Nglcvg-219" value="" style="endArrow=blockThin;dashed=1;html=1;rounded=0;exitX=1;exitY=0;exitDx=0;exitDy=0;entryX=0.049;entryY=0.272;entryDx=0;entryDy=0;edgeStyle=elbowEdgeStyle;fillColor=#008a00;strokeColor=#005700;strokeWidth=2;endFill=1;entryPerimeter=0;" parent="1" source="-FbzT85Cqp1C87Nglcvg-153" target="-FbzT85Cqp1C87Nglcvg-213" edge="1">
          <mxGeometry width="50" height="50" relative="1" as="geometry">
            <mxPoint x="-10512" y="-5258" as="sourcePoint" />
            <mxPoint x="-10123" y="-5091" as="targetPoint" />
            <Array as="points">
              <mxPoint x="-10362" y="-5278" />
            </Array>
          </mxGeometry>
        </mxCell>
        <mxCell id="-FbzT85Cqp1C87Nglcvg-220" value="&amp;lt;&amp;lt;Include&amp;gt;&amp;gt;" style="edgeLabel;html=1;align=center;verticalAlign=middle;resizable=0;points=[];labelBackgroundColor=none;" parent="-FbzT85Cqp1C87Nglcvg-219" vertex="1" connectable="0">
          <mxGeometry x="-0.629" y="6" relative="1" as="geometry">
            <mxPoint x="-36" y="-3" as="offset" />
          </mxGeometry>
        </mxCell>
        <mxCell id="-FbzT85Cqp1C87Nglcvg-221" value="" style="endArrow=blockThin;dashed=1;html=1;rounded=0;exitX=1;exitY=0;exitDx=0;exitDy=0;entryX=0.125;entryY=0.773;entryDx=0;entryDy=0;edgeStyle=elbowEdgeStyle;fillColor=#008a00;strokeColor=#005700;strokeWidth=2;endFill=1;entryPerimeter=0;" parent="1" source="-FbzT85Cqp1C87Nglcvg-154" target="-FbzT85Cqp1C87Nglcvg-213" edge="1">
          <mxGeometry width="50" height="50" relative="1" as="geometry">
            <mxPoint x="-10502" y="-5190.5" as="sourcePoint" />
            <mxPoint x="-10131" y="-5199.5" as="targetPoint" />
            <Array as="points">
              <mxPoint x="-10345" y="-5227" />
            </Array>
          </mxGeometry>
        </mxCell>
        <mxCell id="-FbzT85Cqp1C87Nglcvg-222" value="&amp;lt;&amp;lt;Include&amp;gt;&amp;gt;" style="edgeLabel;html=1;align=center;verticalAlign=middle;resizable=0;points=[];labelBackgroundColor=none;" parent="-FbzT85Cqp1C87Nglcvg-221" vertex="1" connectable="0">
          <mxGeometry x="-0.629" y="6" relative="1" as="geometry">
            <mxPoint x="-44" as="offset" />
          </mxGeometry>
        </mxCell>
        <mxCell id="-FbzT85Cqp1C87Nglcvg-223" value="" style="endArrow=blockThin;dashed=1;html=1;rounded=0;exitX=1;exitY=0;exitDx=0;exitDy=0;edgeStyle=elbowEdgeStyle;fillColor=#008a00;strokeColor=#005700;strokeWidth=2;endFill=1;entryX=0.21;entryY=0.893;entryDx=0;entryDy=0;entryPerimeter=0;" parent="1" source="-FbzT85Cqp1C87Nglcvg-155" target="-FbzT85Cqp1C87Nglcvg-213" edge="1">
          <mxGeometry width="50" height="50" relative="1" as="geometry">
            <mxPoint x="-10512" y="-5126.5" as="sourcePoint" />
            <mxPoint x="-10132" y="-5258" as="targetPoint" />
            <Array as="points">
              <mxPoint x="-10132" y="-5198" />
              <mxPoint x="-10202" y="-5258" />
            </Array>
          </mxGeometry>
        </mxCell>
        <mxCell id="-FbzT85Cqp1C87Nglcvg-224" value="&amp;lt;&amp;lt;Include&amp;gt;&amp;gt;" style="edgeLabel;html=1;align=center;verticalAlign=middle;resizable=0;points=[];labelBackgroundColor=none;" parent="-FbzT85Cqp1C87Nglcvg-223" vertex="1" connectable="0">
          <mxGeometry x="-0.629" y="6" relative="1" as="geometry">
            <mxPoint x="-58" y="-5" as="offset" />
          </mxGeometry>
        </mxCell>
        <mxCell id="-FbzT85Cqp1C87Nglcvg-225" value="" style="endArrow=blockThin;dashed=1;html=1;rounded=0;exitX=1;exitY=0;exitDx=0;exitDy=0;entryX=0.44;entryY=0.981;entryDx=0;entryDy=0;edgeStyle=elbowEdgeStyle;fillColor=#008a00;strokeColor=#005700;strokeWidth=2;endFill=1;entryPerimeter=0;" parent="1" source="-FbzT85Cqp1C87Nglcvg-156" target="-FbzT85Cqp1C87Nglcvg-213" edge="1">
          <mxGeometry width="50" height="50" relative="1" as="geometry">
            <mxPoint x="-10512" y="-5056" as="sourcePoint" />
            <mxPoint x="-10141" y="-5065" as="targetPoint" />
            <Array as="points">
              <mxPoint x="-10105" y="-5158" />
            </Array>
          </mxGeometry>
        </mxCell>
        <mxCell id="-FbzT85Cqp1C87Nglcvg-226" value="&amp;lt;&amp;lt;Include&amp;gt;&amp;gt;" style="edgeLabel;html=1;align=center;verticalAlign=middle;resizable=0;points=[];labelBackgroundColor=none;" parent="-FbzT85Cqp1C87Nglcvg-225" vertex="1" connectable="0">
          <mxGeometry x="-0.629" y="6" relative="1" as="geometry">
            <mxPoint x="-71" y="-4" as="offset" />
          </mxGeometry>
        </mxCell>
        <mxCell id="-FbzT85Cqp1C87Nglcvg-227" value="" style="endArrow=blockThin;dashed=1;html=1;rounded=0;exitX=1;exitY=0;exitDx=0;exitDy=0;edgeStyle=elbowEdgeStyle;fillColor=#008a00;strokeColor=#005700;strokeWidth=2;endFill=1;entryX=0.562;entryY=1.053;entryDx=0;entryDy=0;entryPerimeter=0;" parent="1" source="-FbzT85Cqp1C87Nglcvg-157" target="-FbzT85Cqp1C87Nglcvg-213" edge="1">
          <mxGeometry width="50" height="50" relative="1" as="geometry">
            <mxPoint x="-10490" y="-4989" as="sourcePoint" />
            <mxPoint x="-10090" y="-5261" as="targetPoint" />
            <Array as="points">
              <mxPoint x="-10090" y="-5128" />
            </Array>
          </mxGeometry>
        </mxCell>
        <mxCell id="-FbzT85Cqp1C87Nglcvg-228" value="&amp;lt;&amp;lt;Include&amp;gt;&amp;gt;" style="edgeLabel;html=1;align=center;verticalAlign=middle;resizable=0;points=[];labelBackgroundColor=none;" parent="-FbzT85Cqp1C87Nglcvg-227" vertex="1" connectable="0">
          <mxGeometry x="-0.629" y="6" relative="1" as="geometry">
            <mxPoint x="-92" y="-2" as="offset" />
          </mxGeometry>
        </mxCell>
        <mxCell id="-FbzT85Cqp1C87Nglcvg-229" value="" style="endArrow=blockThin;dashed=1;html=1;rounded=0;exitX=0;exitY=0;exitDx=0;exitDy=0;entryX=0.648;entryY=0.025;entryDx=0;entryDy=0;edgeStyle=orthogonalEdgeStyle;fillColor=#008a00;strokeColor=#005700;strokeWidth=2;endFill=1;entryPerimeter=0;elbow=vertical;" parent="1" source="-FbzT85Cqp1C87Nglcvg-158" target="-FbzT85Cqp1C87Nglcvg-213" edge="1">
          <mxGeometry width="50" height="50" relative="1" as="geometry">
            <mxPoint x="-10066" y="-5400" as="sourcePoint" />
            <mxPoint x="-9695" y="-5409" as="targetPoint" />
            <Array as="points">
              <mxPoint x="-9900" y="-5343" />
              <mxPoint x="-10081" y="-5343" />
              <mxPoint x="-10081" y="-5289" />
              <mxPoint x="-10079" y="-5289" />
            </Array>
          </mxGeometry>
        </mxCell>
        <mxCell id="-FbzT85Cqp1C87Nglcvg-230" value="&amp;lt;&amp;lt;Include&amp;gt;&amp;gt;" style="edgeLabel;html=1;align=center;verticalAlign=middle;resizable=0;points=[];labelBackgroundColor=none;" parent="-FbzT85Cqp1C87Nglcvg-229" vertex="1" connectable="0">
          <mxGeometry x="-0.629" y="6" relative="1" as="geometry">
            <mxPoint x="22" y="-17" as="offset" />
          </mxGeometry>
        </mxCell>
        <mxCell id="-FbzT85Cqp1C87Nglcvg-231" value="" style="endArrow=blockThin;dashed=1;html=1;rounded=0;exitX=0;exitY=0;exitDx=0;exitDy=0;entryX=1;entryY=0;entryDx=0;entryDy=0;edgeStyle=elbowEdgeStyle;fillColor=#008a00;strokeColor=#005700;strokeWidth=2;endFill=1;" parent="1" source="-FbzT85Cqp1C87Nglcvg-159" target="-FbzT85Cqp1C87Nglcvg-213" edge="1">
          <mxGeometry width="50" height="50" relative="1" as="geometry">
            <mxPoint x="-10203" y="-5186" as="sourcePoint" />
            <mxPoint x="-9832" y="-5195" as="targetPoint" />
            <Array as="points">
              <mxPoint x="-9982" y="-5269" />
            </Array>
          </mxGeometry>
        </mxCell>
        <mxCell id="-FbzT85Cqp1C87Nglcvg-232" value="&amp;lt;&amp;lt;Include&amp;gt;&amp;gt;" style="edgeLabel;html=1;align=center;verticalAlign=middle;resizable=0;points=[];labelBackgroundColor=none;" parent="-FbzT85Cqp1C87Nglcvg-231" vertex="1" connectable="0">
          <mxGeometry x="-0.629" y="6" relative="1" as="geometry">
            <mxPoint x="20" y="-16" as="offset" />
          </mxGeometry>
        </mxCell>
        <mxCell id="-FbzT85Cqp1C87Nglcvg-233" value="" style="endArrow=blockThin;dashed=1;html=1;rounded=0;exitX=1;exitY=1;exitDx=0;exitDy=0;entryX=0.586;entryY=0.063;entryDx=0;entryDy=0;edgeStyle=elbowEdgeStyle;fillColor=#e51400;strokeColor=#B20000;strokeWidth=2;endFill=1;entryPerimeter=0;" parent="1" source="-FbzT85Cqp1C87Nglcvg-151" target="-FbzT85Cqp1C87Nglcvg-214" edge="1">
          <mxGeometry width="50" height="50" relative="1" as="geometry">
            <mxPoint x="-10507" y="-5365" as="sourcePoint" />
            <mxPoint x="-10090" y="-5266" as="targetPoint" />
            <Array as="points">
              <mxPoint x="-10262" y="-5250" />
            </Array>
          </mxGeometry>
        </mxCell>
        <mxCell id="-FbzT85Cqp1C87Nglcvg-234" value="&amp;lt;&amp;lt;Include&amp;gt;&amp;gt;" style="edgeLabel;html=1;align=center;verticalAlign=middle;resizable=0;points=[];labelBackgroundColor=none;" parent="-FbzT85Cqp1C87Nglcvg-233" vertex="1" connectable="0">
          <mxGeometry x="-0.629" y="6" relative="1" as="geometry">
            <mxPoint x="-50" y="14" as="offset" />
          </mxGeometry>
        </mxCell>
        <mxCell id="-FbzT85Cqp1C87Nglcvg-235" value="" style="endArrow=blockThin;dashed=1;html=1;rounded=0;exitX=1;exitY=1;exitDx=0;exitDy=0;entryX=0.392;entryY=0.046;entryDx=0;entryDy=0;edgeStyle=elbowEdgeStyle;fillColor=#e51400;strokeColor=#B20000;strokeWidth=2;endFill=1;entryPerimeter=0;" parent="1" source="-FbzT85Cqp1C87Nglcvg-152" target="-FbzT85Cqp1C87Nglcvg-214" edge="1">
          <mxGeometry width="50" height="50" relative="1" as="geometry">
            <mxPoint x="-10495" y="-5308" as="sourcePoint" />
            <mxPoint x="-10280" y="-5071" as="targetPoint" />
            <Array as="points">
              <mxPoint x="-10285" y="-5224" />
            </Array>
          </mxGeometry>
        </mxCell>
        <mxCell id="-FbzT85Cqp1C87Nglcvg-236" value="&amp;lt;&amp;lt;Include&amp;gt;&amp;gt;" style="edgeLabel;html=1;align=center;verticalAlign=middle;resizable=0;points=[];labelBackgroundColor=none;" parent="-FbzT85Cqp1C87Nglcvg-235" vertex="1" connectable="0">
          <mxGeometry x="-0.629" y="6" relative="1" as="geometry">
            <mxPoint x="-42" y="14" as="offset" />
          </mxGeometry>
        </mxCell>
        <mxCell id="-FbzT85Cqp1C87Nglcvg-237" value="" style="endArrow=blockThin;dashed=1;html=1;rounded=0;exitX=1;exitY=1;exitDx=0;exitDy=0;entryX=0.197;entryY=0.03;entryDx=0;entryDy=0;edgeStyle=elbowEdgeStyle;fillColor=#e51400;strokeColor=#B20000;strokeWidth=2;endFill=1;entryPerimeter=0;" parent="1" source="-FbzT85Cqp1C87Nglcvg-153" target="-FbzT85Cqp1C87Nglcvg-214" edge="1">
          <mxGeometry width="50" height="50" relative="1" as="geometry">
            <mxPoint x="-10517" y="-5247" as="sourcePoint" />
            <mxPoint x="-10302" y="-5010" as="targetPoint" />
            <Array as="points">
              <mxPoint x="-10308" y="-5196" />
            </Array>
          </mxGeometry>
        </mxCell>
        <mxCell id="-FbzT85Cqp1C87Nglcvg-238" value="&amp;lt;&amp;lt;Include&amp;gt;&amp;gt;" style="edgeLabel;html=1;align=center;verticalAlign=middle;resizable=0;points=[];labelBackgroundColor=none;" parent="-FbzT85Cqp1C87Nglcvg-237" vertex="1" connectable="0">
          <mxGeometry x="-0.629" y="6" relative="1" as="geometry">
            <mxPoint x="-36" y="14" as="offset" />
          </mxGeometry>
        </mxCell>
        <mxCell id="-FbzT85Cqp1C87Nglcvg-239" value="" style="endArrow=blockThin;dashed=1;html=1;rounded=0;exitX=1;exitY=1;exitDx=0;exitDy=0;entryX=0.059;entryY=0.296;entryDx=0;entryDy=0;edgeStyle=elbowEdgeStyle;fillColor=#e51400;strokeColor=#B20000;strokeWidth=2;endFill=1;entryPerimeter=0;" parent="1" source="-FbzT85Cqp1C87Nglcvg-154" target="-FbzT85Cqp1C87Nglcvg-214" edge="1">
          <mxGeometry width="50" height="50" relative="1" as="geometry">
            <mxPoint x="-10521" y="-5186.5" as="sourcePoint" />
            <mxPoint x="-10306" y="-4949.5" as="targetPoint" />
            <Array as="points">
              <mxPoint x="-10426" y="-5154" />
            </Array>
          </mxGeometry>
        </mxCell>
        <mxCell id="-FbzT85Cqp1C87Nglcvg-240" value="&amp;lt;&amp;lt;Include&amp;gt;&amp;gt;" style="edgeLabel;html=1;align=center;verticalAlign=middle;resizable=0;points=[];labelBackgroundColor=none;" parent="-FbzT85Cqp1C87Nglcvg-239" vertex="1" connectable="0">
          <mxGeometry x="-0.629" y="6" relative="1" as="geometry">
            <mxPoint x="-25" y="14" as="offset" />
          </mxGeometry>
        </mxCell>
        <mxCell id="-FbzT85Cqp1C87Nglcvg-241" value="" style="endArrow=blockThin;dashed=1;html=1;rounded=0;exitX=1;exitY=1;exitDx=0;exitDy=0;entryX=0;entryY=1;entryDx=0;entryDy=0;edgeStyle=elbowEdgeStyle;fillColor=#e51400;strokeColor=#B20000;strokeWidth=2;endFill=1;" parent="1" source="-FbzT85Cqp1C87Nglcvg-156" target="-FbzT85Cqp1C87Nglcvg-214" edge="1">
          <mxGeometry width="50" height="50" relative="1" as="geometry">
            <mxPoint x="-10491" y="-5059.5" as="sourcePoint" />
            <mxPoint x="-10276" y="-4822.5" as="targetPoint" />
            <Array as="points">
              <mxPoint x="-10314" y="-5078" />
            </Array>
          </mxGeometry>
        </mxCell>
        <mxCell id="-FbzT85Cqp1C87Nglcvg-242" value="&amp;lt;&amp;lt;Include&amp;gt;&amp;gt;" style="edgeLabel;html=1;align=center;verticalAlign=middle;resizable=0;points=[];labelBackgroundColor=none;" parent="-FbzT85Cqp1C87Nglcvg-241" vertex="1" connectable="0">
          <mxGeometry x="-0.629" y="6" relative="1" as="geometry">
            <mxPoint x="-23" y="14" as="offset" />
          </mxGeometry>
        </mxCell>
        <mxCell id="-FbzT85Cqp1C87Nglcvg-243" value="" style="endArrow=blockThin;dashed=1;html=1;rounded=0;exitX=1;exitY=1;exitDx=0;exitDy=0;entryX=0.347;entryY=1.01;entryDx=0;entryDy=0;edgeStyle=elbowEdgeStyle;fillColor=#e51400;strokeColor=#B20000;strokeWidth=2;endFill=1;entryPerimeter=0;" parent="1" source="-FbzT85Cqp1C87Nglcvg-157" target="-FbzT85Cqp1C87Nglcvg-214" edge="1">
          <mxGeometry width="50" height="50" relative="1" as="geometry">
            <mxPoint x="-10374" y="-5032" as="sourcePoint" />
            <mxPoint x="-10159" y="-4795" as="targetPoint" />
            <Array as="points">
              <mxPoint x="-10290" y="-5031" />
            </Array>
          </mxGeometry>
        </mxCell>
        <mxCell id="-FbzT85Cqp1C87Nglcvg-244" value="&amp;lt;&amp;lt;Include&amp;gt;&amp;gt;" style="edgeLabel;html=1;align=center;verticalAlign=middle;resizable=0;points=[];labelBackgroundColor=none;" parent="-FbzT85Cqp1C87Nglcvg-243" vertex="1" connectable="0">
          <mxGeometry x="-0.629" y="6" relative="1" as="geometry">
            <mxPoint x="-39" y="14" as="offset" />
          </mxGeometry>
        </mxCell>
        <mxCell id="-FbzT85Cqp1C87Nglcvg-245" value="" style="endArrow=blockThin;dashed=1;html=1;rounded=0;exitX=0;exitY=1;exitDx=0;exitDy=0;entryX=0.723;entryY=0.029;entryDx=0;entryDy=0;edgeStyle=elbowEdgeStyle;fillColor=#e51400;strokeColor=#B20000;strokeWidth=2;endFill=1;entryPerimeter=0;" parent="1" source="-FbzT85Cqp1C87Nglcvg-158" target="-FbzT85Cqp1C87Nglcvg-214" edge="1">
          <mxGeometry width="50" height="50" relative="1" as="geometry">
            <mxPoint x="-10201" y="-5098" as="sourcePoint" />
            <mxPoint x="-9986" y="-4861" as="targetPoint" />
            <Array as="points">
              <mxPoint x="-10245" y="-5303" />
            </Array>
          </mxGeometry>
        </mxCell>
        <mxCell id="-FbzT85Cqp1C87Nglcvg-246" value="&amp;lt;&amp;lt;Include&amp;gt;&amp;gt;" style="edgeLabel;html=1;align=center;verticalAlign=middle;resizable=0;points=[];labelBackgroundColor=none;" parent="-FbzT85Cqp1C87Nglcvg-245" vertex="1" connectable="0">
          <mxGeometry x="-0.629" y="6" relative="1" as="geometry">
            <mxPoint x="59" y="7" as="offset" />
          </mxGeometry>
        </mxCell>
        <mxCell id="-FbzT85Cqp1C87Nglcvg-247" value="" style="endArrow=blockThin;dashed=1;html=1;rounded=0;exitX=0.275;exitY=0.971;exitDx=0;exitDy=0;entryX=1;entryY=0;entryDx=0;entryDy=0;edgeStyle=elbowEdgeStyle;fillColor=#e51400;strokeColor=#B20000;strokeWidth=2;endFill=1;exitPerimeter=0;elbow=vertical;" parent="1" source="-FbzT85Cqp1C87Nglcvg-159" target="-FbzT85Cqp1C87Nglcvg-214" edge="1">
          <mxGeometry width="50" height="50" relative="1" as="geometry">
            <mxPoint x="-9908.106406871062" y="-5101.997864376157" as="sourcePoint" />
            <mxPoint x="-10230.000000000065" y="-5087.299999999916" as="targetPoint" />
            <Array as="points">
              <mxPoint x="-10054" y="-5195" />
            </Array>
          </mxGeometry>
        </mxCell>
        <mxCell id="-FbzT85Cqp1C87Nglcvg-248" value="&amp;lt;&amp;lt;Include&amp;gt;&amp;gt;" style="edgeLabel;html=1;align=center;verticalAlign=middle;resizable=0;points=[];labelBackgroundColor=none;" parent="-FbzT85Cqp1C87Nglcvg-247" vertex="1" connectable="0">
          <mxGeometry x="-0.629" y="6" relative="1" as="geometry">
            <mxPoint x="35" y="2" as="offset" />
          </mxGeometry>
        </mxCell>
        <mxCell id="-FbzT85Cqp1C87Nglcvg-249" value="" style="endArrow=blockThin;dashed=1;html=1;rounded=0;exitX=1;exitY=1;exitDx=0;exitDy=0;entryX=0.029;entryY=0.689;entryDx=0;entryDy=0;edgeStyle=elbowEdgeStyle;fillColor=#e51400;strokeColor=#B20000;strokeWidth=2;endFill=1;entryPerimeter=0;" parent="1" source="-FbzT85Cqp1C87Nglcvg-155" target="-FbzT85Cqp1C87Nglcvg-214" edge="1">
          <mxGeometry width="50" height="50" relative="1" as="geometry">
            <mxPoint x="-10519" y="-5123" as="sourcePoint" />
            <mxPoint x="-10314" y="-5046" as="targetPoint" />
            <Array as="points">
              <mxPoint x="-10458" y="-5101" />
            </Array>
          </mxGeometry>
        </mxCell>
        <mxCell id="-FbzT85Cqp1C87Nglcvg-250" value="&amp;lt;&amp;lt;Include&amp;gt;&amp;gt;" style="edgeLabel;html=1;align=center;verticalAlign=middle;resizable=0;points=[];labelBackgroundColor=none;" parent="-FbzT85Cqp1C87Nglcvg-249" vertex="1" connectable="0">
          <mxGeometry x="-0.629" y="6" relative="1" as="geometry">
            <mxPoint x="-19" y="14" as="offset" />
          </mxGeometry>
        </mxCell>
        <mxCell id="-FbzT85Cqp1C87Nglcvg-251" value="修改個人資料" style="ellipse;whiteSpace=wrap;html=1;" parent="1" vertex="1">
          <mxGeometry x="-10632" y="-4940" width="120" height="40" as="geometry" />
        </mxCell>
        <mxCell id="-FbzT85Cqp1C87Nglcvg-253" value="" style="endArrow=none;html=1;endSize=12;startArrow=none;startSize=14;startFill=0;rounded=0;align=center;edgeStyle=elbowEdgeStyle;exitX=0;exitY=0.5;exitDx=0;exitDy=0;" parent="1" source="-FbzT85Cqp1C87Nglcvg-251" edge="1">
          <mxGeometry relative="1" as="geometry">
            <mxPoint x="-10634" y="-4913.5" as="sourcePoint" />
            <mxPoint x="-10835" y="-5158" as="targetPoint" />
            <Array as="points">
              <mxPoint x="-10835" y="-4924" />
            </Array>
          </mxGeometry>
        </mxCell>
        <mxCell id="-FbzT85Cqp1C87Nglcvg-254" value="0..n" style="edgeLabel;resizable=0;html=1;align=left;verticalAlign=top;labelBackgroundColor=none;" parent="-FbzT85Cqp1C87Nglcvg-253" connectable="0" vertex="1">
          <mxGeometry x="-1" relative="1" as="geometry">
            <mxPoint x="-20" y="-20" as="offset" />
          </mxGeometry>
        </mxCell>
        <mxCell id="-FbzT85Cqp1C87Nglcvg-255" value="1" style="edgeLabel;resizable=0;html=1;align=right;verticalAlign=top;labelBackgroundColor=none;" parent="-FbzT85Cqp1C87Nglcvg-253" connectable="0" vertex="1">
          <mxGeometry x="1" relative="1" as="geometry">
            <mxPoint x="7" y="-19" as="offset" />
          </mxGeometry>
        </mxCell>
        <mxCell id="-FbzT85Cqp1C87Nglcvg-260" value="" style="endArrow=blockThin;dashed=1;html=1;rounded=0;exitX=1;exitY=0;exitDx=0;exitDy=0;edgeStyle=elbowEdgeStyle;fillColor=#008a00;strokeColor=#005700;strokeWidth=2;endFill=1;" parent="1" source="-FbzT85Cqp1C87Nglcvg-251" target="-FbzT85Cqp1C87Nglcvg-213" edge="1">
          <mxGeometry width="50" height="50" relative="1" as="geometry">
            <mxPoint x="-10508" y="-4900" as="sourcePoint" />
            <mxPoint x="-10055" y="-5153" as="targetPoint" />
            <Array as="points">
              <mxPoint x="-10067" y="-4930" />
            </Array>
          </mxGeometry>
        </mxCell>
        <mxCell id="-FbzT85Cqp1C87Nglcvg-261" value="&amp;lt;&amp;lt;Include&amp;gt;&amp;gt;" style="edgeLabel;html=1;align=center;verticalAlign=middle;resizable=0;points=[];labelBackgroundColor=none;" parent="-FbzT85Cqp1C87Nglcvg-260" vertex="1" connectable="0">
          <mxGeometry x="-0.629" y="6" relative="1" as="geometry">
            <mxPoint x="-92" y="-2" as="offset" />
          </mxGeometry>
        </mxCell>
        <mxCell id="-FbzT85Cqp1C87Nglcvg-262" value="" style="endArrow=blockThin;dashed=1;html=1;rounded=0;exitX=1;exitY=1;exitDx=0;exitDy=0;edgeStyle=elbowEdgeStyle;fillColor=#e51400;strokeColor=#B20000;strokeWidth=2;endFill=1;entryX=0.576;entryY=0.981;entryDx=0;entryDy=0;entryPerimeter=0;" parent="1" source="-FbzT85Cqp1C87Nglcvg-251" target="-FbzT85Cqp1C87Nglcvg-214" edge="1">
          <mxGeometry width="50" height="50" relative="1" as="geometry">
            <mxPoint x="-10512" y="-4881" as="sourcePoint" />
            <mxPoint x="-10242" y="-5000" as="targetPoint" />
            <Array as="points">
              <mxPoint x="-10263" y="-5005" />
            </Array>
          </mxGeometry>
        </mxCell>
        <mxCell id="-FbzT85Cqp1C87Nglcvg-263" value="&amp;lt;&amp;lt;Include&amp;gt;&amp;gt;" style="edgeLabel;html=1;align=center;verticalAlign=middle;resizable=0;points=[];labelBackgroundColor=none;" parent="-FbzT85Cqp1C87Nglcvg-262" vertex="1" connectable="0">
          <mxGeometry x="-0.629" y="6" relative="1" as="geometry">
            <mxPoint x="-39" y="14" as="offset" />
          </mxGeometry>
        </mxCell>
        <mxCell id="-FbzT85Cqp1C87Nglcvg-264" value="常見問題管理" style="ellipse;whiteSpace=wrap;html=1;" parent="1" vertex="1">
          <mxGeometry x="-9918" y="-5137" width="120" height="40" as="geometry" />
        </mxCell>
        <mxCell id="-FbzT85Cqp1C87Nglcvg-265" value="通知、公告處理" style="ellipse;whiteSpace=wrap;html=1;" parent="1" vertex="1">
          <mxGeometry x="-9918" y="-5032" width="120" height="40" as="geometry" />
        </mxCell>
        <mxCell id="-FbzT85Cqp1C87Nglcvg-266" value="" style="endArrow=blockThin;dashed=1;html=1;rounded=0;exitX=0;exitY=0;exitDx=0;exitDy=0;entryX=1;entryY=0.5;entryDx=0;entryDy=0;edgeStyle=elbowEdgeStyle;fillColor=#008a00;strokeColor=#005700;strokeWidth=2;endFill=1;" parent="1" source="-FbzT85Cqp1C87Nglcvg-264" target="-FbzT85Cqp1C87Nglcvg-213" edge="1">
          <mxGeometry width="50" height="50" relative="1" as="geometry">
            <mxPoint x="-9929" y="-5080" as="sourcePoint" />
            <mxPoint x="-10084" y="-5125" as="targetPoint" />
            <Array as="points">
              <mxPoint x="-10011" y="-5114" />
            </Array>
          </mxGeometry>
        </mxCell>
        <mxCell id="-FbzT85Cqp1C87Nglcvg-267" value="&amp;lt;&amp;lt;Include&amp;gt;&amp;gt;" style="edgeLabel;html=1;align=center;verticalAlign=middle;resizable=0;points=[];labelBackgroundColor=none;" parent="-FbzT85Cqp1C87Nglcvg-266" vertex="1" connectable="0">
          <mxGeometry x="-0.629" y="6" relative="1" as="geometry">
            <mxPoint x="23" y="-14" as="offset" />
          </mxGeometry>
        </mxCell>
        <mxCell id="-FbzT85Cqp1C87Nglcvg-268" value="" style="endArrow=blockThin;dashed=1;html=1;rounded=0;exitX=0;exitY=1;exitDx=0;exitDy=0;entryX=0.902;entryY=0.829;entryDx=0;entryDy=0;edgeStyle=elbowEdgeStyle;fillColor=#e51400;strokeColor=#B20000;strokeWidth=2;endFill=1;entryPerimeter=0;" parent="1" source="-FbzT85Cqp1C87Nglcvg-264" target="-FbzT85Cqp1C87Nglcvg-214" edge="1">
          <mxGeometry width="50" height="50" relative="1" as="geometry">
            <mxPoint x="-9888" y="-5070" as="sourcePoint" />
            <mxPoint x="-10223" y="-4976" as="targetPoint" />
            <Array as="points">
              <mxPoint x="-10057" y="-5111" />
            </Array>
          </mxGeometry>
        </mxCell>
        <mxCell id="-FbzT85Cqp1C87Nglcvg-269" value="&amp;lt;&amp;lt;Include&amp;gt;&amp;gt;" style="edgeLabel;html=1;align=center;verticalAlign=middle;resizable=0;points=[];labelBackgroundColor=none;" parent="-FbzT85Cqp1C87Nglcvg-268" vertex="1" connectable="0">
          <mxGeometry x="-0.629" y="6" relative="1" as="geometry">
            <mxPoint x="35" y="2" as="offset" />
          </mxGeometry>
        </mxCell>
        <mxCell id="-FbzT85Cqp1C87Nglcvg-270" value="" style="endArrow=blockThin;dashed=1;html=1;rounded=0;exitX=0;exitY=1;exitDx=0;exitDy=0;entryX=0.764;entryY=0.981;entryDx=0;entryDy=0;edgeStyle=elbowEdgeStyle;fillColor=#e51400;strokeColor=#B20000;strokeWidth=2;endFill=1;entryPerimeter=0;" parent="1" source="-FbzT85Cqp1C87Nglcvg-265" target="-FbzT85Cqp1C87Nglcvg-214" edge="1">
          <mxGeometry width="50" height="50" relative="1" as="geometry">
            <mxPoint x="-9912" y="-5048" as="sourcePoint" />
            <mxPoint x="-10247" y="-4954" as="targetPoint" />
            <Array as="points">
              <mxPoint x="-10177" y="-4984" />
            </Array>
          </mxGeometry>
        </mxCell>
        <mxCell id="-FbzT85Cqp1C87Nglcvg-271" value="&amp;lt;&amp;lt;Include&amp;gt;&amp;gt;" style="edgeLabel;html=1;align=center;verticalAlign=middle;resizable=0;points=[];labelBackgroundColor=none;" parent="-FbzT85Cqp1C87Nglcvg-270" vertex="1" connectable="0">
          <mxGeometry x="-0.629" y="6" relative="1" as="geometry">
            <mxPoint x="35" y="2" as="offset" />
          </mxGeometry>
        </mxCell>
        <mxCell id="-FbzT85Cqp1C87Nglcvg-272" value="" style="endArrow=blockThin;dashed=1;html=1;rounded=0;exitX=0;exitY=0;exitDx=0;exitDy=0;entryX=0.906;entryY=0.816;entryDx=0;entryDy=0;edgeStyle=elbowEdgeStyle;fillColor=#008a00;strokeColor=#005700;strokeWidth=2;endFill=1;entryPerimeter=0;" parent="1" source="-FbzT85Cqp1C87Nglcvg-265" target="-FbzT85Cqp1C87Nglcvg-213" edge="1">
          <mxGeometry width="50" height="50" relative="1" as="geometry">
            <mxPoint x="-9937" y="-5022" as="sourcePoint" />
            <mxPoint x="-10074" y="-5157" as="targetPoint" />
            <Array as="points">
              <mxPoint x="-10048" y="-5005" />
            </Array>
          </mxGeometry>
        </mxCell>
        <mxCell id="-FbzT85Cqp1C87Nglcvg-273" value="&amp;lt;&amp;lt;Include&amp;gt;&amp;gt;" style="edgeLabel;html=1;align=center;verticalAlign=middle;resizable=0;points=[];labelBackgroundColor=none;" parent="-FbzT85Cqp1C87Nglcvg-272" vertex="1" connectable="0">
          <mxGeometry x="-0.629" y="6" relative="1" as="geometry">
            <mxPoint x="23" y="-14" as="offset" />
          </mxGeometry>
        </mxCell>
        <mxCell id="-FbzT85Cqp1C87Nglcvg-274" value="" style="endArrow=none;html=1;endSize=12;startArrow=none;startSize=14;startFill=0;edgeStyle=orthogonalEdgeStyle;rounded=0;align=center;exitX=1;exitY=0.5;exitDx=0;exitDy=0;" parent="1" source="-FbzT85Cqp1C87Nglcvg-264" edge="1">
          <mxGeometry relative="1" as="geometry">
            <mxPoint x="-9795" y="-5128" as="sourcePoint" />
            <mxPoint x="-9634" y="-5152" as="targetPoint" />
            <Array as="points">
              <mxPoint x="-9726" y="-5117" />
              <mxPoint x="-9726" y="-5152" />
            </Array>
          </mxGeometry>
        </mxCell>
        <mxCell id="-FbzT85Cqp1C87Nglcvg-275" value="0..n" style="edgeLabel;resizable=0;html=1;align=left;verticalAlign=top;labelBackgroundColor=none;" parent="-FbzT85Cqp1C87Nglcvg-274" connectable="0" vertex="1">
          <mxGeometry x="-1" relative="1" as="geometry">
            <mxPoint y="-20" as="offset" />
          </mxGeometry>
        </mxCell>
        <mxCell id="-FbzT85Cqp1C87Nglcvg-276" value="1" style="edgeLabel;resizable=0;html=1;align=right;verticalAlign=top;labelBackgroundColor=none;" parent="-FbzT85Cqp1C87Nglcvg-274" connectable="0" vertex="1">
          <mxGeometry x="1" relative="1" as="geometry">
            <mxPoint x="-5" y="-20" as="offset" />
          </mxGeometry>
        </mxCell>
        <mxCell id="-FbzT85Cqp1C87Nglcvg-277" value="" style="endArrow=none;html=1;endSize=12;startArrow=none;startSize=14;startFill=0;edgeStyle=orthogonalEdgeStyle;rounded=0;align=center;exitX=1;exitY=0.5;exitDx=0;exitDy=0;" parent="1" source="-FbzT85Cqp1C87Nglcvg-265" edge="1">
          <mxGeometry relative="1" as="geometry">
            <mxPoint x="-9778" y="-5017" as="sourcePoint" />
            <mxPoint x="-9620" y="-5104" as="targetPoint" />
            <Array as="points">
              <mxPoint x="-9798" y="-5017" />
              <mxPoint x="-9620" y="-5017" />
            </Array>
          </mxGeometry>
        </mxCell>
        <mxCell id="-FbzT85Cqp1C87Nglcvg-278" value="0..n" style="edgeLabel;resizable=0;html=1;align=left;verticalAlign=top;labelBackgroundColor=none;" parent="-FbzT85Cqp1C87Nglcvg-277" connectable="0" vertex="1">
          <mxGeometry x="-1" relative="1" as="geometry">
            <mxPoint y="-20" as="offset" />
          </mxGeometry>
        </mxCell>
        <mxCell id="-FbzT85Cqp1C87Nglcvg-279" value="1" style="edgeLabel;resizable=0;html=1;align=right;verticalAlign=top;labelBackgroundColor=none;" parent="-FbzT85Cqp1C87Nglcvg-277" connectable="0" vertex="1">
          <mxGeometry x="1" relative="1" as="geometry">
            <mxPoint x="-3" y="-11" as="offset" />
          </mxGeometry>
        </mxCell>
      </root>
    </mxGraphModel>
  </diagram>
</mxfile>
